<mxfile host="app.diagrams.net" modified="2022-06-30T12:46:25.168Z" agent="5.0 (X11; Linux x86_64) AppleWebKit/537.36 (KHTML, like Gecko) Chrome/103.0.5060.53 Safari/537.36   " etag="bd8OoCy1PzvYrA3jX4sc" version="20.0.4" type="github">
  <diagram name="Page-1" id="5f0bae14-7c28-e335-631c-24af17079c00">
    <mxGraphModel dx="1902" dy="1015" grid="1" gridSize="10" guides="1" tooltips="1" connect="1" arrows="1" fold="1" page="1" pageScale="1" pageWidth="1100" pageHeight="850" background="none" math="0" shadow="0">
      <root>
        <mxCell id="0" />
        <mxCell id="1" parent="0" />
        <mxCell id="-eNbFwF4JjJWjm2iFTOP-1" value="Lecturer" style="ellipse;whiteSpace=wrap;html=1;" vertex="1" parent="1">
          <mxGeometry x="80" y="520" width="120" height="80" as="geometry" />
        </mxCell>
        <mxCell id="-eNbFwF4JjJWjm2iFTOP-2" value="Student" style="ellipse;whiteSpace=wrap;html=1;" vertex="1" parent="1">
          <mxGeometry x="80" y="150" width="120" height="80" as="geometry" />
        </mxCell>
        <mxCell id="-eNbFwF4JjJWjm2iFTOP-3" value="Recruiter" style="ellipse;whiteSpace=wrap;html=1;" vertex="1" parent="1">
          <mxGeometry x="900" y="520" width="120" height="80" as="geometry" />
        </mxCell>
        <mxCell id="-eNbFwF4JjJWjm2iFTOP-4" value="HR" style="ellipse;whiteSpace=wrap;html=1;" vertex="1" parent="1">
          <mxGeometry x="900" y="150" width="120" height="80" as="geometry" />
        </mxCell>
        <mxCell id="-eNbFwF4JjJWjm2iFTOP-6" value="" style="rounded=1;whiteSpace=wrap;html=1;" vertex="1" parent="1">
          <mxGeometry x="250" y="150" width="70" height="450" as="geometry" />
        </mxCell>
        <mxCell id="-eNbFwF4JjJWjm2iFTOP-8" value="" style="rounded=1;whiteSpace=wrap;html=1;" vertex="1" parent="1">
          <mxGeometry x="780" y="150" width="70" height="450" as="geometry" />
        </mxCell>
        <mxCell id="-eNbFwF4JjJWjm2iFTOP-9" value="" style="whiteSpace=wrap;html=1;aspect=fixed;" vertex="1" parent="1">
          <mxGeometry x="395" y="335" width="80" height="80" as="geometry" />
        </mxCell>
        <mxCell id="-eNbFwF4JjJWjm2iFTOP-10" value="" style="whiteSpace=wrap;html=1;aspect=fixed;" vertex="1" parent="1">
          <mxGeometry x="625" y="335" width="80" height="80" as="geometry" />
        </mxCell>
      </root>
    </mxGraphModel>
  </diagram>
</mxfile>
